<svg width="50" height="51" viewBox="0 0 50 51" fill="none" xmlns="http://www.w3.org/2000/svg">
<g clip-path="url(#clip0_82_28)">
<path d="M35.9276 42.5369C35.7364 42.4603 35.5289 42.4159 35.3092 42.4159C35.0894 42.4159 34.8819 42.4603 34.6907 42.5369C34.4995 42.6176 34.3245 42.7306 34.1821 42.8758L34.1699 42.8839C34.0885 42.9646 34.0112 43.0574 33.9502 43.1582C33.9176 43.2107 33.8851 43.2672 33.8566 43.3277H31.2892V41.1168C30.8945 41.2983 30.4835 41.4355 30.0645 41.5202C29.9912 41.5364 29.9221 41.5485 29.8488 41.5606V44.0377C29.8488 44.2354 29.9302 44.4129 30.0604 44.542C30.1906 44.6712 30.3696 44.7518 30.569 44.7518H33.881C33.9054 44.8003 33.9339 44.8487 33.9664 44.8971C34.0234 44.9818 34.0885 45.0625 34.1618 45.1351L34.174 45.1472C34.3204 45.2925 34.4995 45.4135 34.6988 45.4942C34.8901 45.5708 35.0976 45.6152 35.3173 45.6152C35.5289 45.6152 35.7364 45.5749 35.9235 45.4982L35.9358 45.4942C36.1351 45.4135 36.3101 45.2925 36.4606 45.1472C36.6071 45.002 36.7292 44.8245 36.8105 44.6268C36.8879 44.4372 36.9326 44.2314 36.9326 44.0135C36.9326 43.7997 36.8879 43.594 36.8105 43.4003C36.7292 43.2026 36.6071 43.0251 36.4606 42.8799C36.306 42.7386 36.127 42.6176 35.9276 42.5369ZM24.1891 27.4077H21.1782L20.7469 28.8117H18.0371L21.2718 20.291H24.1769L27.3994 28.8117H24.6204L24.1891 27.4077ZM23.6276 25.56L22.6877 22.4978L21.7437 25.56H23.6276ZM28.1481 20.2869H30.8131V28.8077H28.1481V20.2869ZM26.1177 11.5523C25.6783 11.867 25.2714 12.2906 24.9174 12.8393C24.9011 12.8676 24.8767 12.8918 24.8482 12.9079C24.7384 12.9765 24.5919 12.9442 24.5227 12.8393C24.1688 12.2906 23.7619 11.867 23.3224 11.5523C22.8505 11.2134 22.3419 10.9996 21.817 10.8947H21.8088C21.2962 10.7898 20.7713 10.7898 20.2668 10.8786C19.7338 10.9714 19.217 11.165 18.7532 11.4313C18.2934 11.6976 17.8784 12.0405 17.5325 12.4359C17.1989 12.8192 16.9303 13.2589 16.7554 13.7309C16.7269 13.8036 16.7025 13.8802 16.6781 13.9609C16.6577 14.0335 16.6333 14.1142 16.617 14.1949C16.5967 14.2998 16.5072 14.3765 16.3933 14.3805C15.848 14.4612 15.3069 14.6589 14.8024 14.9534C14.2897 15.256 13.8136 15.6675 13.4027 16.1597C12.9958 16.6519 12.654 17.2328 12.4099 17.8784C12.182 18.4835 12.0437 19.1492 12.0152 19.8552C12.0112 19.948 12.0112 20.0368 12.0112 20.1296C12.0112 20.2143 12.0152 20.3031 12.0152 20.3959C12.0193 20.4725 11.9867 20.5532 11.9176 20.6016C11.5839 20.8396 11.2828 21.0857 11.0143 21.3399C10.7417 21.6022 10.5016 21.8725 10.2941 22.1508C9.95641 22.6067 9.70821 23.0828 9.54139 23.5629C9.36643 24.0632 9.28098 24.5755 9.27285 25.0799C9.26878 25.564 9.33388 26.0441 9.47222 26.508C9.61056 26.9801 9.82214 27.44 10.0947 27.8677C10.2494 28.1138 10.4243 28.3558 10.6156 28.5818C10.8109 28.8117 11.0224 29.0296 11.2503 29.2353C11.3073 29.2878 11.3398 29.3725 11.3235 29.4532C11.2584 29.7598 11.2259 30.0624 11.2137 30.361C11.2055 30.6676 11.2218 30.9702 11.2625 31.2647C11.3398 31.8053 11.4985 32.3217 11.7223 32.7978C11.9583 33.3061 12.2675 33.7701 12.6255 34.1775C12.9714 34.577 13.3661 34.9239 13.7892 35.2104C14.2164 35.5008 14.6681 35.7268 15.1319 35.8841C15.3394 35.9527 15.551 36.0092 15.7667 36.0495C15.9701 36.0899 16.1735 36.1141 16.3729 36.1221C16.4828 36.1181 16.5845 36.1948 16.6089 36.3077C16.7147 36.7878 16.91 37.2397 17.1785 37.6472C17.4593 38.0748 17.8133 38.4541 18.2202 38.7687C18.7328 39.1641 19.335 39.4627 19.9697 39.62C20.5679 39.7693 21.1985 39.7975 21.817 39.6684C22.3703 39.5555 22.9074 39.3215 23.4038 38.9503C23.8595 38.6074 24.2827 38.1474 24.6367 37.5503C24.657 37.514 24.6896 37.4858 24.7303 37.4656C24.8442 37.4051 24.9866 37.4495 25.0476 37.5624C25.3406 38.1031 25.6986 38.5348 26.0974 38.8615C26.5287 39.2125 27.0047 39.4506 27.5052 39.5877C28.144 39.7612 28.8113 39.7612 29.4582 39.6281C30.1499 39.4869 30.8172 39.1883 31.3909 38.7768C31.8425 38.4581 32.2413 38.0668 32.5586 37.623C32.8597 37.2074 33.0835 36.7435 33.2137 36.2553C33.23 36.1625 33.3032 36.0818 33.405 36.0657C34.0031 35.9608 34.593 35.7147 35.1342 35.3475C35.6754 34.9804 36.1677 34.4963 36.5705 33.9193C36.9408 33.3868 37.2378 32.7736 37.429 32.1038C37.608 31.4785 37.6935 30.8007 37.665 30.0866C37.6569 30.0059 37.6935 29.9252 37.7667 29.8768C38.1166 29.6388 38.4259 29.3886 38.7025 29.1345C38.9833 28.8682 39.2315 28.5939 39.4431 28.3074C39.7686 27.8717 40.0086 27.4198 40.1755 26.9559C40.3463 26.4758 40.4359 25.9876 40.4521 25.4994C40.4643 25.0274 40.4074 24.5594 40.2853 24.0995C40.1632 23.6355 39.972 23.1877 39.7238 22.7641L39.7157 22.756C39.5529 22.4776 39.3617 22.2114 39.1501 21.9532C38.9385 21.6949 38.6985 21.4529 38.4421 21.2229C38.3811 21.1705 38.3486 21.0857 38.3648 21.001C38.4218 20.7226 38.4584 20.4443 38.4706 20.1699C38.4828 19.8915 38.4747 19.6172 38.4462 19.3469C38.3852 18.7861 38.2346 18.2536 38.0149 17.7573C37.783 17.2328 37.4738 16.7487 37.1116 16.3251C36.7617 15.9136 36.3589 15.5545 35.9276 15.256C35.4963 14.9574 35.0365 14.7234 34.5686 14.5661L34.5564 14.562C34.3082 14.4773 34.056 14.4168 33.8078 14.3765H33.7996C33.5555 14.3361 33.3114 14.32 33.0713 14.324C32.9615 14.3321 32.8557 14.2595 32.8272 14.1465C32.7865 13.9811 32.7336 13.8197 32.6726 13.6624C32.6075 13.501 32.5342 13.3436 32.4488 13.1863C32.2291 12.7828 31.9402 12.4117 31.6025 12.093C31.2566 11.7662 30.8619 11.4878 30.4388 11.274C30.0034 11.0561 29.5274 10.9028 29.0391 10.8342C28.5753 10.7697 28.0992 10.7777 27.6313 10.8745C27.1064 10.9996 26.5897 11.2134 26.1177 11.5523ZM32.7702 16.0951C32.7987 16.0064 32.8801 15.9378 32.9818 15.9297C33.1527 15.9176 33.3276 15.9257 33.5026 15.9539C33.6816 15.9822 33.8607 16.0265 34.0397 16.0871C34.3774 16.2 34.7151 16.3735 35.0284 16.5914C35.3376 16.8052 35.6306 17.0674 35.8829 17.366L35.8869 17.3741C36.1514 17.6847 36.3752 18.0317 36.542 18.4109C36.7007 18.7659 36.8065 19.1452 36.8512 19.5446C36.8797 19.8109 36.8797 20.0892 36.8472 20.3716C36.8187 20.6339 36.7577 20.9042 36.6641 21.1745L36.66 21.1906C36.603 21.3601 36.6071 21.5376 36.66 21.6949C36.717 21.8563 36.8228 22.0016 36.9733 22.0984L36.9855 22.1065C37.2703 22.3163 37.5226 22.5462 37.7423 22.7883C37.9702 23.0344 38.1655 23.3007 38.3282 23.575C38.5072 23.8776 38.6456 24.1923 38.731 24.515C38.8205 24.8338 38.8612 25.1565 38.849 25.4752C38.8409 25.8061 38.7758 26.1369 38.6578 26.4637C38.5439 26.7743 38.377 27.0809 38.1573 27.3795L38.1533 27.3835C37.9539 27.6538 37.7016 27.9201 37.4046 28.1743C37.1198 28.4163 36.7902 28.6463 36.4118 28.8682L36.3996 28.8763C36.2491 28.961 36.1392 29.0901 36.0741 29.2394C36.009 29.3886 35.9886 29.5541 36.0212 29.7154L36.0253 29.7477C36.1026 30.365 36.066 30.954 35.9398 31.4906C35.8015 32.0756 35.5614 32.6001 35.2481 33.0479C35.0081 33.3908 34.7314 33.6853 34.4344 33.9193C34.1292 34.1614 33.7996 34.3389 33.4619 34.4478H33.4578C33.3358 34.4842 33.2015 34.4156 33.1649 34.2945C32.7051 32.8058 31.9117 32.3257 30.569 31.6399L30.5405 31.6237C30.3533 31.535 30.1499 31.5269 29.9668 31.5834C29.7837 31.6399 29.625 31.7649 29.5314 31.9465L29.5192 31.9707C29.4297 32.1563 29.4216 32.358 29.4786 32.5396C29.5396 32.7211 29.6698 32.8825 29.857 32.9793C30.9799 33.5482 31.81 33.9799 31.7978 35.3758C31.7937 35.7913 31.6635 36.1948 31.4438 36.5579C31.2119 36.9411 30.8782 37.2841 30.4917 37.5624C30.097 37.8449 29.6535 38.0506 29.1978 38.1515C28.7624 38.2523 28.3149 38.2564 27.8958 38.1434C27.1878 37.9498 26.728 37.4818 26.4188 36.9129C26.1259 36.3723 25.9631 35.7429 25.8451 35.17C25.837 35.1498 25.837 35.1256 25.837 35.1055C25.837 34.815 25.6091 34.6254 25.3121 34.5406C25.1819 34.5003 25.0395 34.4842 24.9011 34.4842C24.7587 34.4842 24.6204 34.5043 24.4902 34.5406C24.1972 34.6294 23.9694 34.819 23.9694 35.1055C23.9694 35.1256 23.9653 35.1418 23.9612 35.1619C23.7334 36.0576 23.4038 36.7313 23.0173 37.2155C22.5656 37.7843 22.0367 38.095 21.4915 38.208C21.0927 38.2886 20.6818 38.2685 20.2912 38.1676C19.8802 38.0587 19.4896 37.861 19.1478 37.6028C18.8101 37.3406 18.5294 37.0218 18.3341 36.6628C18.1469 36.3198 18.0371 35.9406 18.0371 35.5533C18.0371 34.0848 18.9322 33.5925 20.1162 32.9914C20.3034 32.8946 20.4336 32.7332 20.4946 32.5517C20.5557 32.3661 20.5434 32.1603 20.4499 31.9707C20.3522 31.7851 20.1895 31.656 20.0064 31.5955C19.8233 31.539 19.6198 31.5471 19.4327 31.6358L19.4205 31.6399C18.0249 32.3459 17.1907 32.8623 16.6903 34.3994C16.6618 34.5003 16.5642 34.577 16.4543 34.5729C16.316 34.5689 16.1776 34.5527 16.0352 34.5245C15.8969 34.4963 15.7585 34.46 15.6283 34.4115C15.2988 34.2986 14.9692 34.1332 14.6599 33.9234C14.3548 33.7136 14.07 33.4634 13.8177 33.173C13.5573 32.8744 13.3335 32.5396 13.1626 32.1724C12.9999 31.8295 12.8859 31.4624 12.829 31.0791V31.071C12.7883 30.7886 12.7802 30.4941 12.8127 30.1915C12.8412 29.9091 12.9022 29.6146 13.0039 29.3241L13.008 29.312C13.065 29.1466 13.0609 28.9731 13.0121 28.8198L13.008 28.8117C12.9551 28.6503 12.8493 28.5091 12.7029 28.4083L12.6947 28.4002C12.4343 28.2066 12.1983 28.0008 11.9908 27.7749C11.7792 27.5489 11.5921 27.3069 11.4375 27.0567C11.2503 26.7542 11.1038 26.4314 11.0062 26.1006C10.9126 25.7778 10.8638 25.447 10.8678 25.1081C10.8719 24.7652 10.9329 24.4142 11.055 24.0712C11.173 23.7444 11.3439 23.4177 11.5799 23.0989C11.7792 22.8286 12.0234 22.5624 12.3163 22.3082C12.5971 22.0621 12.9144 21.8281 13.2806 21.6062C13.4149 21.5255 13.5125 21.4125 13.5776 21.2834L13.5817 21.2713C13.6468 21.1382 13.6712 20.9889 13.6509 20.8396C13.6468 20.8235 13.6468 20.8074 13.6468 20.7912V20.7832C13.6265 20.642 13.6143 20.5008 13.6061 20.3636C13.598 20.2143 13.598 20.065 13.6021 19.9198C13.6224 19.3913 13.7241 18.895 13.8909 18.4472C14.07 17.9671 14.3222 17.5354 14.6233 17.1683C14.8715 16.8657 15.1563 16.6115 15.4534 16.4139C15.7504 16.2162 16.0637 16.075 16.3851 15.9943C16.5072 15.958 16.6415 16.0265 16.6781 16.1476C16.9303 16.9383 17.2477 17.4346 17.854 17.9954L17.8784 18.0155C18.0289 18.1527 18.2242 18.2173 18.4155 18.2092C18.6067 18.2011 18.7939 18.1245 18.9322 17.9752L18.9444 17.959C19.0827 17.8098 19.1478 17.6161 19.1397 17.4265C19.1316 17.2369 19.0502 17.0473 18.8956 16.902C18.4073 16.4542 18.2975 16.1758 18.151 15.724C17.9801 15.2035 18.0086 14.6952 18.1754 14.2433C18.2893 13.9327 18.4684 13.6422 18.6962 13.388C18.92 13.1338 19.1926 12.9079 19.4937 12.7344L19.5059 12.7264C19.8151 12.5488 20.1488 12.4197 20.4946 12.3552C20.8242 12.2947 21.1619 12.2906 21.4915 12.3592C21.9553 12.4561 22.411 12.6981 22.8138 13.1177C23.1678 13.4848 23.4811 13.9932 23.7293 14.6629L23.7334 14.671C23.8188 14.9332 24.0955 15.0865 24.421 15.147C24.5675 15.1753 24.7221 15.1833 24.8727 15.1753H24.8767C25.0313 15.1672 25.1778 15.139 25.3162 15.0946C25.5603 15.0139 25.7515 14.8848 25.7963 14.7194V14.6266C25.7963 14.1586 26.077 13.6624 26.4636 13.2549C26.8867 12.8111 27.4523 12.4601 27.9283 12.3633C28.2294 12.3027 28.5346 12.2987 28.8316 12.3431C29.1408 12.3915 29.4419 12.4883 29.7268 12.6295L29.7512 12.6376C30.04 12.7828 30.3045 12.9684 30.5364 13.1863C30.7643 13.4042 30.9596 13.6503 31.1061 13.9206C31.338 14.3442 31.4438 14.8283 31.3706 15.3407C31.3054 15.7885 31.2892 16.0709 30.9108 16.5187L30.9067 16.5228C30.7724 16.6801 30.7155 16.8778 30.7317 17.0715C30.748 17.2571 30.8335 17.4386 30.984 17.5677L31.0084 17.5879C31.1671 17.717 31.3624 17.7694 31.5536 17.7533C31.7408 17.7372 31.9239 17.6524 32.0541 17.5032L32.0745 17.4749C32.4651 17.015 32.5912 16.6761 32.7702 16.0951ZM41.7053 35.8397C41.628 35.6501 41.5833 35.4444 41.5833 35.2265C41.5833 35.0086 41.628 34.8029 41.7053 34.6133C41.7867 34.4236 41.9006 34.2502 42.0471 34.109L42.0552 34.0969C42.1366 34.0162 42.2302 33.9395 42.3319 33.879C42.3848 33.8467 42.4418 33.8144 42.5028 33.7862V31.2405H39.3454C39.3495 31.075 39.3495 30.9096 39.3413 30.7402C39.3332 30.6474 39.3739 30.5546 39.4553 30.5022C39.7808 30.2803 40.0778 30.0503 40.3463 29.8123H43.2189C43.4183 29.8123 43.5973 29.893 43.7275 30.0221C43.8577 30.1512 43.9391 30.3287 43.9391 30.5264V33.8104C43.9879 33.8346 44.0368 33.8629 44.0856 33.8951C44.171 33.9516 44.2524 34.0162 44.3256 34.0888L44.3378 34.1009C44.4843 34.2461 44.6064 34.4236 44.6878 34.6213C44.7651 34.811 44.8098 35.0167 44.8098 35.2346C44.8098 35.4444 44.7691 35.6461 44.6918 35.8357L44.6878 35.8478C44.6064 36.0455 44.4843 36.219 44.3378 36.3682C44.1914 36.5135 44.0123 36.6345 43.813 36.7152C43.6217 36.7919 43.4142 36.8362 43.1945 36.8362C42.9789 36.8362 42.7714 36.7919 42.576 36.7152C42.3767 36.6345 42.1977 36.5135 42.0512 36.3682C41.9088 36.2149 41.7867 36.0374 41.7053 35.8397ZM46.2787 27.67H41.9861C42.0593 27.5126 42.1244 27.3553 42.1814 27.1939C42.2953 26.8792 42.3767 26.5605 42.4255 26.2418H46.2787C46.3071 26.1893 46.3356 26.1369 46.3682 26.0844C46.4292 25.9876 46.5024 25.8988 46.5798 25.8222C46.7303 25.6729 46.9053 25.5559 47.1046 25.4752C47.2959 25.3986 47.5034 25.3542 47.7231 25.3542C47.9347 25.3542 48.1381 25.3945 48.3293 25.4712L48.3416 25.4752C48.5409 25.5559 48.7159 25.677 48.8664 25.8222C49.0129 25.9674 49.135 26.1449 49.2163 26.3426C49.2937 26.5323 49.3384 26.738 49.3384 26.9559C49.3384 27.1697 49.2937 27.3755 49.2163 27.5691C49.135 27.7668 49.0129 27.9443 48.8664 28.0896C48.72 28.2348 48.5409 28.3558 48.3416 28.4365C48.1503 28.5132 47.9428 28.5576 47.7231 28.5576C47.5115 28.5576 47.3081 28.5172 47.1168 28.4406L47.1046 28.4365C46.9053 28.3558 46.7303 28.2348 46.5798 28.0896C46.5024 28.0129 46.4333 27.9282 46.3722 27.8354L46.3641 27.8233C46.3356 27.7749 46.3071 27.7224 46.2787 27.67ZM47.6458 23.7646H42.2465C42.1081 23.3128 41.9128 22.873 41.6687 22.4534L41.6606 22.4413C41.6402 22.405 41.6199 22.3727 41.5995 22.3364H46.9297V17.6766C46.889 17.6524 46.8483 17.6282 46.8076 17.6C46.7262 17.5435 46.653 17.483 46.5838 17.4144C46.4374 17.2692 46.3153 17.0916 46.2339 16.8939C46.1566 16.7043 46.1118 16.4986 46.1118 16.2807C46.1118 16.0669 46.1566 15.8571 46.2339 15.6675C46.3153 15.4698 46.4374 15.2963 46.5838 15.147C46.7303 15.0018 46.9093 14.8808 47.1087 14.8001C47.2999 14.7234 47.5074 14.679 47.7272 14.679C47.9428 14.679 48.1503 14.7234 48.3456 14.8001C48.545 14.8808 48.724 15.0018 48.8705 15.147C49.017 15.2923 49.139 15.4698 49.2204 15.6675C49.2977 15.8571 49.3425 16.0629 49.3425 16.2807C49.3425 16.4905 49.3018 16.6922 49.2245 16.8818L49.2204 16.8939C49.139 17.0916 49.017 17.2651 48.8705 17.4144C48.781 17.5032 48.6752 17.5838 48.5653 17.6524C48.5043 17.6887 48.4351 17.725 48.37 17.7533V23.0465C48.37 23.2442 48.2887 23.4217 48.1585 23.5508C48.0242 23.6839 47.8452 23.7646 47.6458 23.7646ZM42.0023 20.3192H40.1632C40.2121 20.0529 40.2406 19.7867 40.2528 19.5204C40.2609 19.3066 40.2609 19.0968 40.2487 18.891H41.2822V16.785C41.2252 16.7568 41.1723 16.7285 41.1194 16.6922C41.0218 16.6317 40.9323 16.5591 40.8468 16.4744C40.7003 16.3291 40.5783 16.1516 40.4969 15.9539C40.4196 15.7643 40.3748 15.5585 40.3748 15.3447C40.3748 15.1309 40.4196 14.9251 40.4969 14.7315C40.5783 14.5419 40.6922 14.3684 40.8346 14.2231L40.8468 14.211C40.9933 14.0658 41.1723 13.9448 41.3717 13.8641C41.5629 13.7874 41.7704 13.743 41.9901 13.743C42.2099 13.743 42.4174 13.7874 42.6086 13.8641C42.7998 13.9448 42.9748 14.0577 43.1213 14.203L43.1335 14.211C43.28 14.3563 43.3979 14.5257 43.4793 14.7194L43.4834 14.7315C43.5607 14.9211 43.6055 15.1269 43.6055 15.3447C43.6055 15.5585 43.5607 15.7683 43.4834 15.958C43.402 16.1476 43.2881 16.3211 43.1457 16.4663L43.1335 16.4784C43.0562 16.5551 42.9707 16.6236 42.8731 16.6882C42.8242 16.7205 42.7754 16.7487 42.7225 16.7729V19.6051C42.7225 19.8028 42.6412 19.9803 42.5109 20.1094C42.3807 20.2385 42.1977 20.3192 42.0023 20.3192ZM13.4881 8.10691C13.6794 8.18357 13.8869 8.22795 14.1066 8.22795C14.3263 8.22795 14.5338 8.18357 14.725 8.10691C14.9163 8.02623 15.0912 7.91326 15.2337 7.76802L15.2459 7.75995C15.3272 7.67926 15.4045 7.58647 15.4656 7.48561C15.4981 7.43316 15.5307 7.37668 15.5592 7.31616H18.1266V9.51494C18.5782 9.27691 19.0665 9.10342 19.5669 9.00256V6.60206C19.5669 6.40438 19.4856 6.22686 19.3554 6.09776C19.2252 5.96866 19.0461 5.88797 18.8468 5.88797H15.5347C15.5103 5.83955 15.4818 5.79114 15.4493 5.74273C15.3923 5.658 15.3272 5.57731 15.254 5.50469L15.2418 5.49259C15.0953 5.34735 14.9163 5.22632 14.7169 5.14563C14.5257 5.06897 14.3182 5.02459 14.0985 5.02459C13.8869 5.02459 13.6794 5.06494 13.4922 5.14159L13.48 5.14563C13.2806 5.22632 13.1057 5.34735 12.9551 5.49259C12.8086 5.63783 12.6866 5.81535 12.6052 6.01303C12.5279 6.20265 12.4831 6.40841 12.4831 6.62627C12.4831 6.8401 12.5279 7.04585 12.6052 7.23951C12.6866 7.4372 12.8086 7.61471 12.9551 7.75995C13.1138 7.90519 13.2888 8.02623 13.4881 8.10691ZM21.7315 3.57219V9.08325C22.2117 9.22042 22.6796 9.43828 23.119 9.75297L23.1678 9.78928C23.1678 9.77718 23.1719 9.76507 23.1719 9.75297V3.57219C23.2248 3.54395 23.2777 3.51571 23.3306 3.48343C23.4282 3.42292 23.5177 3.3503 23.5951 3.27364C23.7415 3.12437 23.8636 2.95089 23.945 2.7532C24.0223 2.56358 24.067 2.35782 24.067 2.13996C24.067 1.93017 24.0263 1.72845 23.949 1.53883L23.945 1.52672C23.8636 1.32904 23.7415 1.15555 23.5951 1.00628C23.4486 0.861039 23.2696 0.740005 23.0702 0.659316C22.8789 0.582662 22.6714 0.538283 22.4517 0.538283C22.2361 0.538283 22.0286 0.582662 21.8333 0.659316C21.6339 0.740005 21.4549 0.861039 21.3084 1.00628C21.1619 1.15152 21.0398 1.32904 20.9585 1.52672C20.8812 1.71634 20.8364 1.9221 20.8364 2.13996C20.8364 2.34975 20.8771 2.55147 20.9544 2.74109L20.9585 2.7532C21.0398 2.95089 21.1619 3.12437 21.3084 3.27364C21.3857 3.3503 21.4711 3.41888 21.5647 3.4794L21.5729 3.48343C21.6258 3.51571 21.6746 3.54395 21.7315 3.57219ZM25.6661 2.21661V10.2774C25.8614 10.0798 26.0689 9.90628 26.2805 9.75297C26.5449 9.56335 26.8216 9.40601 27.1064 9.28498V2.92668H31.8059C31.8303 2.96702 31.8547 3.00737 31.8832 3.04771C31.9402 3.1284 32.0012 3.20102 32.0704 3.26961C32.2169 3.41485 32.3959 3.53588 32.5953 3.61657C32.7865 3.69322 32.994 3.7376 33.2137 3.7376C33.4294 3.7376 33.6409 3.69322 33.8322 3.61657C34.0315 3.53588 34.2106 3.41485 34.3571 3.26961C34.5035 3.12437 34.6256 2.94685 34.707 2.74916C34.7843 2.55954 34.829 2.35379 34.829 2.13593C34.829 1.9221 34.7843 1.71634 34.707 1.52269C34.6256 1.325 34.5035 1.14749 34.3571 1.00224C34.2024 0.857004 34.0234 0.735971 33.824 0.655282C33.6328 0.578627 33.4253 0.534248 33.2097 0.534248C32.9981 0.534248 32.7946 0.574593 32.6034 0.651247L32.5912 0.655282C32.3918 0.735971 32.2169 0.857004 32.0663 1.00224C31.9768 1.091 31.8954 1.1959 31.8263 1.30483C31.7896 1.36535 31.753 1.43393 31.7245 1.49848H26.3863C26.1869 1.49848 26.0079 1.57917 25.8777 1.70827C25.7475 1.84141 25.6661 2.01893 25.6661 2.21661ZM29.1408 7.8124V8.91784C29.2873 8.92591 29.4379 8.93801 29.5843 8.96222C29.9261 9.01063 30.2598 9.09536 30.5812 9.21235V8.53053H32.7051C32.7336 8.58701 32.7621 8.63946 32.7987 8.69191C32.8597 8.78874 32.933 8.87749 33.0184 8.96222C33.1649 9.10746 33.3439 9.22849 33.5433 9.30918C33.7345 9.38584 33.942 9.43021 34.1577 9.43021C34.3733 9.43021 34.5808 9.38584 34.7761 9.30918C34.9674 9.22849 35.1423 9.11553 35.2888 8.97432L35.301 8.96222C35.4475 8.81698 35.5696 8.63946 35.6509 8.44177C35.7282 8.25215 35.773 8.0464 35.773 7.82854C35.773 7.61068 35.7282 7.40492 35.6509 7.2153C35.5696 7.02568 35.4556 6.8522 35.3092 6.70696L35.301 6.69486C35.1545 6.54962 34.9837 6.43262 34.7883 6.35193L34.7761 6.34789C34.5849 6.27124 34.3774 6.22686 34.1577 6.22686C33.942 6.22686 33.7305 6.27124 33.5392 6.34789C33.348 6.42858 33.173 6.54155 33.0266 6.68275L33.0144 6.69486C32.937 6.77151 32.8679 6.85623 32.8028 6.95306C32.7702 7.00147 32.7417 7.04989 32.7173 7.10234H29.861C29.6616 7.10234 29.4826 7.18302 29.3524 7.31213C29.2222 7.4372 29.1408 7.61471 29.1408 7.8124ZM8.45908 14.7355C8.53639 14.9251 8.58115 15.1309 8.58115 15.3488C8.58115 15.5666 8.53639 15.7724 8.45908 15.962C8.37771 16.1516 8.26378 16.3251 8.1173 16.4663L8.10917 16.4784C8.02779 16.5591 7.93421 16.6357 7.83249 16.6963C7.77959 16.7285 7.72263 16.7608 7.6616 16.7891V19.3348H10.3267V19.4599C10.3267 19.5567 10.3307 19.6576 10.3348 19.7624C10.3429 19.8512 10.3023 19.94 10.2249 19.9964C9.87503 20.2425 9.56173 20.5007 9.27692 20.763H6.94956C6.75019 20.763 6.57116 20.6823 6.44096 20.5532C6.31075 20.4241 6.22938 20.2466 6.22938 20.0489V16.7648C6.18055 16.7406 6.13173 16.7124 6.0829 16.6801C5.99746 16.6236 5.91608 16.5591 5.84284 16.4865L5.83063 16.4744C5.68416 16.3291 5.56209 16.1516 5.48072 15.9539C5.40341 15.7643 5.35865 15.5585 5.35865 15.3407C5.35865 15.1309 5.39934 14.9292 5.47665 14.7396L5.48072 14.7275C5.56209 14.5298 5.68416 14.3563 5.83063 14.207C5.97711 14.0618 6.15614 13.9407 6.35551 13.86C6.54674 13.7834 6.75425 13.739 6.97397 13.739C7.18962 13.739 7.39713 13.7834 7.59243 13.86C7.7918 13.9407 7.97083 14.0618 8.1173 14.207C8.25564 14.3603 8.37771 14.5378 8.45908 14.7355ZM3.88574 22.9053H7.71042C7.64532 23.0505 7.58836 23.1998 7.53547 23.345C7.42154 23.6718 7.34016 23.9986 7.29134 24.3294H3.88574C3.85726 24.3819 3.82878 24.4343 3.79623 24.4868C3.7352 24.5836 3.66196 24.6724 3.58465 24.749C3.43411 24.8983 3.25915 25.0153 3.05977 25.096C2.86854 25.1726 2.66103 25.217 2.44132 25.217C2.22974 25.217 2.0263 25.1767 1.83506 25.1L1.82286 25.096C1.62349 25.0153 1.44853 24.8943 1.29798 24.749C1.1515 24.6038 1.02944 24.4263 0.948063 24.2286C0.870756 24.039 0.825999 23.8332 0.825999 23.6153C0.825999 23.4015 0.870756 23.1958 0.948063 23.0021C1.02944 22.8044 1.1515 22.6269 1.29798 22.4817C1.44446 22.3364 1.62349 22.2154 1.82286 22.1347C2.01409 22.0581 2.2216 22.0137 2.44132 22.0137C2.65289 22.0137 2.85633 22.054 3.04757 22.1307L3.05977 22.1347C3.25915 22.2154 3.43411 22.3364 3.58465 22.4817C3.66196 22.5583 3.73113 22.643 3.79216 22.7358L3.8003 22.7479C3.82878 22.8004 3.85726 22.8528 3.88574 22.9053ZM2.51862 26.8106H7.49478C7.64939 27.2988 7.87318 27.7708 8.15799 28.2187V28.2227L8.16613 28.2388H3.23473V32.8986C3.27542 32.9228 3.31611 32.947 3.3568 32.9753C3.43817 33.0318 3.51141 33.0923 3.58058 33.1609C3.72706 33.3061 3.84912 33.4836 3.9305 33.6813C4.00781 33.8709 4.05256 34.0767 4.05256 34.2945C4.05256 34.5084 4.00781 34.7182 3.9305 34.9078C3.84912 35.1055 3.72706 35.2789 3.58058 35.4282C3.43411 35.5735 3.25508 35.6945 3.05571 35.7752C2.86447 35.8518 2.65696 35.8962 2.43725 35.8962C2.2216 35.8962 2.01409 35.8518 1.81879 35.7752C1.61942 35.6945 1.44039 35.5735 1.29391 35.4282C1.14743 35.2709 1.02537 35.0934 0.943994 34.8997C0.866687 34.7101 0.82193 34.5043 0.82193 34.2865C0.82193 34.0767 0.862618 33.875 0.939925 33.6853L0.943994 33.6732C1.02537 33.4755 1.14743 33.3021 1.29391 33.1528C1.38343 33.064 1.48921 32.9833 1.59907 32.9148C1.6601 32.8784 1.72927 32.8421 1.79438 32.8139V27.5207C1.79438 27.323 1.87575 27.1455 2.00595 27.0164C2.14022 26.8913 2.31925 26.8106 2.51862 26.8106ZM8.16206 30.2561H9.50477C9.46001 30.5223 9.4356 30.7846 9.42746 31.0428C9.41932 31.2606 9.42339 31.4745 9.43967 31.6842H8.88224V33.7902C8.9392 33.8185 8.9921 33.8467 9.04499 33.883C9.14264 33.9435 9.23216 34.0162 9.3176 34.1009C9.46408 34.2461 9.58614 34.4236 9.66752 34.6213C9.74483 34.811 9.78959 35.0167 9.78959 35.2346C9.78959 35.4524 9.74483 35.6542 9.66752 35.8478C9.58614 36.0374 9.47222 36.2109 9.32981 36.3561L9.3176 36.3682C9.17113 36.5135 8.9921 36.6345 8.79273 36.7152C8.60149 36.7919 8.39398 36.8362 8.17427 36.8362C7.95455 36.8362 7.74704 36.7919 7.55581 36.7152C7.36457 36.6345 7.18962 36.5216 7.04314 36.3763L7.03093 36.3682C6.88446 36.223 6.76646 36.0536 6.68508 35.8599L6.68102 35.8478C6.60371 35.6582 6.55895 35.4524 6.55895 35.2346C6.55895 35.0207 6.60371 34.811 6.68102 34.6213C6.76239 34.4317 6.87632 34.2582 7.01873 34.113L7.03093 34.1009C7.10824 34.0242 7.19369 33.9556 7.29134 33.8911C7.34016 33.8588 7.38899 33.8306 7.44188 33.8064V30.9742C7.44188 30.7765 7.52326 30.599 7.65346 30.4699C7.78366 30.3327 7.96269 30.2561 8.16206 30.2561ZM27.6883 47.0717V41.4275C27.1797 41.2701 26.6996 41.0159 26.2601 40.6569L26.252 40.6488V47.0757C26.1991 47.1039 26.1462 47.1322 26.0933 47.1644C25.9957 47.225 25.9061 47.2976 25.8288 47.3742C25.6824 47.5235 25.5603 47.697 25.4789 47.8947C25.4016 48.0843 25.3568 48.2901 25.3568 48.5079C25.3568 48.7177 25.3975 48.9194 25.4748 49.1091L25.4789 49.1212C25.5603 49.3188 25.6824 49.4923 25.8288 49.6416C25.9753 49.7868 26.1543 49.9079 26.3537 49.9886C26.5449 50.0652 26.7524 50.1096 26.9722 50.1096C27.1878 50.1096 27.3953 50.0652 27.5906 49.9886C27.79 49.9079 27.969 49.7868 28.1155 49.6416C28.262 49.4964 28.384 49.3188 28.4654 49.1212C28.5427 48.9315 28.5875 48.7258 28.5875 48.5079C28.5875 48.2981 28.5468 48.0964 28.4695 47.9068L28.4654 47.8947C28.384 47.697 28.262 47.5235 28.1155 47.3742C28.0382 47.2976 27.9527 47.229 27.8592 47.1685L27.847 47.1604C27.7941 47.1281 27.7412 47.0999 27.6883 47.0717ZM23.7497 48.4272V40.2938C23.5788 40.4673 23.3998 40.6206 23.2126 40.7618C22.9237 40.9796 22.6226 41.1531 22.3093 41.2903V47.7212H17.6098C17.5854 47.6809 17.561 47.6405 17.5325 47.6002C17.4756 47.5195 17.4145 47.4469 17.3454 47.3783C17.1989 47.233 17.0199 47.112 16.8205 47.0313C16.6293 46.9547 16.4217 46.9103 16.202 46.9103C15.9864 46.9103 15.7748 46.9547 15.5836 47.0313C15.3842 47.112 15.2092 47.233 15.0587 47.3783C14.9122 47.5235 14.7902 47.701 14.7088 47.8987C14.6315 48.0883 14.5867 48.2941 14.5867 48.5119C14.5867 48.7258 14.6315 48.9315 14.7088 49.1252C14.7902 49.3229 14.9122 49.5004 15.0587 49.6456C15.2052 49.7909 15.3842 49.9119 15.5836 49.9926C15.7748 50.0692 15.9823 50.1136 16.202 50.1136C16.4136 50.1136 16.617 50.0733 16.8083 49.9966L16.8205 49.9926C17.0199 49.9119 17.1948 49.7909 17.3454 49.6456C17.4349 49.5569 17.5163 49.452 17.5854 49.343C17.622 49.2825 17.6587 49.2139 17.6871 49.1494H23.0254C23.2248 49.1494 23.4038 49.0687 23.534 48.9396C23.6683 48.8024 23.7497 48.6249 23.7497 48.4272ZM20.2749 42.8314V41.6574C19.9575 41.6413 19.6402 41.5929 19.3309 41.5162C19.1641 41.4759 18.9973 41.4234 18.8345 41.3669V42.1214H16.7106C16.6821 42.0649 16.6537 42.0124 16.617 41.96C16.556 41.8632 16.4828 41.7744 16.3973 41.6897C16.2509 41.5445 16.0718 41.4234 15.8725 41.3427C15.6812 41.2661 15.4737 41.2217 15.2581 41.2217C15.0424 41.2217 14.8349 41.2661 14.6396 41.3427C14.4484 41.4234 14.2734 41.5364 14.1269 41.6776L14.1147 41.6857C13.9683 41.8309 13.8462 42.0084 13.7648 42.2061C13.6875 42.3957 13.6427 42.6015 13.6427 42.8193C13.6427 43.0372 13.6875 43.243 13.7648 43.4326C13.8462 43.6222 13.9601 43.7957 14.1066 43.9409L14.1147 43.953C14.2612 44.0983 14.4321 44.2153 14.6274 44.2959L14.6396 44.3C14.8308 44.3766 15.0383 44.421 15.2581 44.421C15.4737 44.421 15.6812 44.3766 15.8765 44.3C16.0678 44.2193 16.2427 44.1063 16.3892 43.9651L16.4014 43.953C16.4787 43.8764 16.5479 43.7916 16.613 43.6948C16.6455 43.6464 16.674 43.598 16.6984 43.5455H19.5547C19.7541 43.5455 19.9331 43.4648 20.0633 43.3357C20.1935 43.2066 20.2749 43.0291 20.2749 42.8314Z" fill="white"/>
</g>
<defs>
<clipPath id="clip0_82_28">
<rect width="48.5205" height="49.5753" fill="white" transform="translate(0.82193 0.534248)"/>
</clipPath>
</defs>
</svg>
