<svg width="50" height="50" viewBox="0 0 50 50" fill="none" xmlns="http://www.w3.org/2000/svg">
<g clip-path="url(#clip0_249_45)">
<path d="M33.375 -2.23196e-05C30.5391 0.191384 27.5039 1.87888 25.625 4.15623C23.9805 6.16013 22.6016 9.10154 23.125 12.1562C22.6562 12.0117 22.2305 11.9961 21.7187 11.8125C20.3242 11.3164 18.7305 10.7812 16.75 10.7812C12.8164 10.7812 8.78906 13.1211 6.25 17.0312C2.55468 22.7109 3.29687 32.707 8.90625 41.25C9.89453 42.75 11.0469 44.3867 12.4687 45.6875C13.8906 46.9883 15.6094 47.9804 17.625 48C19.3477 48.0195 20.5469 47.4453 21.625 46.9687C22.7031 46.4922 23.707 46.0703 25.5937 46.0625C25.6055 46.0625 25.6133 46.0625 25.625 46.0625C27.5039 46.0469 28.4766 46.4609 29.5312 46.9375C30.5859 47.414 31.7734 48.0156 33.5 48C35.5547 47.9844 37.3008 46.8594 38.75 45.4687C40.1992 44.0781 41.3906 42.3711 42.375 40.875C43.7852 38.7265 44.3516 37.5547 45.4375 35.1562C45.5508 34.9062 45.5547 34.6172 45.4453 34.3633C45.3398 34.1094 45.1328 33.9101 44.875 33.8125C41.3203 32.4687 39.293 29.3242 39 26C38.707 22.6758 40.1133 19.2539 43.6562 17.3125C43.918 17.1719 44.1016 16.9258 44.1641 16.6367C44.2227 16.3476 44.1523 16.0429 43.9687 15.8125C41.4258 12.6523 37.8477 10.7812 34.3437 10.7812C32.1094 10.7812 30.4687 11.3086 29.125 11.8125C28.9023 11.8984 28.7383 11.8906 28.5312 11.9687C29.8945 11.25 31.0977 10.2539 32 9.09373C33.6406 6.98826 34.9062 3.99217 34.4375 0.843728C34.3594 0.328103 33.8945 -0.0390848 33.375 -2.23196e-05ZM32.3125 2.37498C32.2461 4.39451 31.5547 6.37107 30.4062 7.84373C29.2031 9.3906 27.1797 10.4609 25.2187 10.7812C25.2539 8.83982 26.0195 6.8281 27.1875 5.40623C28.4141 3.92185 30.4453 2.85154 32.3125 2.37498ZM16.75 12.7812C18.3633 12.7812 19.6562 13.1992 21.0312 13.6875C22.4062 14.1758 23.8555 14.75 25.5625 14.75C27.2305 14.75 28.5508 14.1719 29.8437 13.6875C31.1367 13.2031 32.4258 12.7812 34.3437 12.7812C36.8477 12.7812 39.5547 14.082 41.6875 16.3437C38.2734 18.7539 36.6758 22.5117 37 26.1562C37.3242 29.8398 39.543 33.3359 43.1875 35.1562C42.3984 36.875 41.8789 38.0117 40.7187 39.7812C39.7617 41.2383 38.625 42.832 37.375 44.0312C36.125 45.2304 34.8008 45.9883 33.4687 46C32.1836 46.0117 31.4531 45.6289 30.3437 45.125C29.2344 44.6211 27.8008 44.0429 25.5937 44.0625C23.3906 44.0742 21.9375 44.6289 20.8125 45.125C19.6875 45.6211 18.9492 46.0117 17.6562 46C16.2891 45.9883 15.0195 45.3242 13.8125 44.2187C12.6055 43.1133 11.5156 41.6054 10.5625 40.1562C5.3125 32.1562 4.89062 22.7578 7.90625 18.125C10.1172 14.7226 13.6289 12.7812 16.75 12.7812Z" fill="black"/>
</g>
<defs>
<clipPath id="clip0_249_45">
<rect width="50" height="50" fill="white"/>
</clipPath>
</defs>
</svg>
