<svg width="153" height="36" viewBox="0 0 153 36" fill="none" xmlns="http://www.w3.org/2000/svg">
<path d="M16.3636 14.2344C16.2145 13.7159 16.005 13.2578 15.7351 12.8601C15.4652 12.4553 15.1349 12.1143 14.7443 11.8374C14.3608 11.5533 13.9205 11.3366 13.4233 11.1875C12.9332 11.0384 12.3899 10.9638 11.7933 10.9638C10.6783 10.9638 9.69815 11.2408 8.85298 11.7947C8.01491 12.3487 7.36151 13.1548 6.89276 14.2131C6.42401 15.2642 6.18963 16.5497 6.18963 18.0696C6.18963 19.5895 6.42045 20.8821 6.8821 21.9474C7.34375 23.0128 7.99716 23.826 8.84233 24.3871C9.6875 24.9411 10.6854 25.218 11.8359 25.218C12.88 25.218 13.7713 25.0334 14.5099 24.6641C15.2557 24.2876 15.8239 23.7585 16.2145 23.0767C16.6122 22.3949 16.8111 21.5888 16.8111 20.6584L17.7486 20.7969H12.1236V17.3239H21.2536V20.0724C21.2536 21.9901 20.8487 23.6378 20.0391 25.0156C19.2294 26.3864 18.1143 27.4446 16.6939 28.1903C15.2734 28.929 13.647 29.2983 11.8146 29.2983C9.76918 29.2983 7.9723 28.8473 6.42401 27.9453C4.87571 27.0362 3.66832 25.7472 2.80185 24.0781C1.94247 22.402 1.51278 20.4134 1.51278 18.1122C1.51278 16.3437 1.76847 14.767 2.27983 13.3821C2.7983 11.9901 3.52273 10.8111 4.45312 9.84517C5.38352 8.87926 6.46662 8.14418 7.70241 7.63991C8.93821 7.13565 10.277 6.88352 11.7188 6.88352C12.9545 6.88352 14.1051 7.06463 15.1705 7.42685C16.2358 7.78196 17.1804 8.28622 18.0043 8.93963C18.8352 9.59304 19.5135 10.3707 20.0391 11.2727C20.5646 12.1676 20.902 13.1548 21.0511 14.2344H16.3636ZM45.4634 29V12.6364H49.7887V15.5234H49.9805C50.3214 14.5646 50.8896 13.8082 51.685 13.2543C52.4805 12.7003 53.4322 12.4233 54.5401 12.4233C55.6623 12.4233 56.6175 12.7038 57.4059 13.2649C58.1942 13.8189 58.7198 14.5717 58.9826 15.5234H59.1531C59.4869 14.5859 60.0906 13.8366 60.9641 13.2756C61.8448 12.7074 62.8853 12.4233 64.0856 12.4233C65.6126 12.4233 66.8519 12.9098 67.8036 13.8828C68.7624 14.8487 69.2418 16.2195 69.2418 17.995V29H64.7141V18.8899C64.7141 17.9808 64.4727 17.299 63.9897 16.8445C63.5067 16.3899 62.9031 16.1626 62.1786 16.1626C61.3548 16.1626 60.712 16.4254 60.2504 16.951C59.7887 17.4695 59.5579 18.1548 59.5579 19.0071V29H55.158V18.794C55.158 17.9915 54.9272 17.3523 54.4656 16.8764C54.011 16.4006 53.4109 16.1626 52.6651 16.1626C52.1609 16.1626 51.7063 16.2905 51.3015 16.5462C50.9038 16.7947 50.5877 17.1463 50.3533 17.6009C50.119 18.0483 50.0018 18.5739 50.0018 19.1776V29H45.4634ZM80.2841 29.3196C78.6009 29.3196 77.152 28.9787 75.9375 28.2969C74.7301 27.608 73.7997 26.6349 73.1463 25.3778C72.4929 24.1136 72.1662 22.6186 72.1662 20.8928C72.1662 19.2095 72.4929 17.7322 73.1463 16.4609C73.7997 15.1896 74.7195 14.1989 75.9055 13.4886C77.0987 12.7784 78.4979 12.4233 80.103 12.4233C81.1825 12.4233 82.1875 12.5973 83.1179 12.9453C84.0554 13.2862 84.8722 13.8011 85.5682 14.4901C86.2713 15.179 86.8182 16.0455 87.2088 17.0895C87.5994 18.1264 87.7947 19.3409 87.7947 20.733V21.9794H73.9773V19.1669H83.5227C83.5227 18.5135 83.3807 17.9347 83.0966 17.4304C82.8125 16.9261 82.4183 16.532 81.9141 16.2479C81.4169 15.9567 80.8381 15.8111 80.1776 15.8111C79.4886 15.8111 78.8778 15.9709 78.3452 16.2905C77.8196 16.603 77.4077 17.0256 77.1094 17.5582C76.8111 18.0838 76.6584 18.6697 76.6513 19.3161V21.9901C76.6513 22.7997 76.8004 23.4993 77.0987 24.0888C77.4041 24.6783 77.8338 25.1328 78.3878 25.4524C78.9418 25.772 79.5987 25.9318 80.3587 25.9318C80.8629 25.9318 81.3246 25.8608 81.7436 25.7188C82.1626 25.5767 82.5213 25.3636 82.8196 25.0795C83.1179 24.7955 83.3452 24.4474 83.5014 24.0355L87.6989 24.3125C87.4858 25.321 87.049 26.2017 86.3885 26.9545C85.7351 27.7003 84.8899 28.2827 83.853 28.7017C82.8232 29.1136 81.6335 29.3196 80.2841 29.3196Z" fill="#4041D5"/>
<path d="M91.5874 29V7.18182H94.2294V16.8977H105.863V7.18182H108.505V29H105.863V19.2415H94.2294V29H91.5874ZM128.113 7.18182H130.755V21.6278C130.755 23.1193 130.403 24.451 129.7 25.6229C129.004 26.7876 128.02 27.7074 126.749 28.3821C125.478 29.0497 123.986 29.3835 122.275 29.3835C120.563 29.3835 119.071 29.0497 117.8 28.3821C116.529 27.7074 115.542 26.7876 114.838 25.6229C114.142 24.451 113.794 23.1193 113.794 21.6278V7.18182H116.436V21.4148C116.436 22.4801 116.671 23.4283 117.14 24.2592C117.608 25.0831 118.276 25.733 119.142 26.2088C120.016 26.6776 121.06 26.9119 122.275 26.9119C123.489 26.9119 124.533 26.6776 125.407 26.2088C126.28 25.733 126.948 25.0831 127.409 24.2592C127.878 23.4283 128.113 22.4801 128.113 21.4148V7.18182ZM136.031 29V7.18182H143.659C145.178 7.18182 146.432 7.4446 147.419 7.97017C148.406 8.48864 149.142 9.18821 149.624 10.0689C150.107 10.9425 150.349 11.9119 150.349 12.9773C150.349 13.9148 150.182 14.6889 149.848 15.2997C149.521 15.9105 149.088 16.3935 148.548 16.7486C148.016 17.1037 147.437 17.3665 146.812 17.5369V17.75C147.48 17.7926 148.151 18.027 148.825 18.4531C149.5 18.8793 150.065 19.4901 150.519 20.2855C150.974 21.081 151.201 22.054 151.201 23.2045C151.201 24.2983 150.953 25.282 150.455 26.1555C149.958 27.0291 149.173 27.7216 148.101 28.233C147.029 28.7443 145.633 29 143.914 29H136.031ZM138.673 26.6562H143.914C145.64 26.6562 146.865 26.3224 147.59 25.6548C148.321 24.9801 148.687 24.1634 148.687 23.2045C148.687 22.4659 148.499 21.7841 148.122 21.1591C147.746 20.527 147.21 20.0227 146.514 19.6463C145.818 19.2628 144.994 19.071 144.042 19.071H138.673V26.6562ZM138.673 16.7699H143.573C144.369 16.7699 145.086 16.6136 145.725 16.3011C146.372 15.9886 146.883 15.5483 147.259 14.9801C147.643 14.4119 147.835 13.7443 147.835 12.9773C147.835 12.0185 147.501 11.2053 146.833 10.5376C146.166 9.86293 145.107 9.52557 143.659 9.52557H138.673V16.7699Z" fill="black"/>
<path d="M40 18.2679C41.3333 19.0377 41.3333 20.9623 40 21.7321L28 28.6603C26.6667 29.4301 25 28.4678 25 26.9282L25 13.0718C25 11.5322 26.6667 10.5699 28 11.3397L40 18.2679Z" fill="#4041D5"/>
</svg>
