<svg width="204" height="48" viewBox="0 0 204 48" fill="none" xmlns="http://www.w3.org/2000/svg">
<path d="M21.8182 19.3125C21.6193 18.6212 21.34 18.0104 20.9801 17.4801C20.6203 16.9403 20.1799 16.4858 19.6591 16.1165C19.1477 15.7377 18.5606 15.4489 17.8977 15.25C17.2443 15.0511 16.5199 14.9517 15.7244 14.9517C14.2377 14.9517 12.9309 15.321 11.804 16.0597C10.6866 16.7983 9.81534 17.8731 9.19034 19.2841C8.56534 20.6856 8.25284 22.3996 8.25284 24.4261C8.25284 26.4527 8.56061 28.1761 9.17614 29.5966C9.79167 31.017 10.6629 32.1013 11.7898 32.8494C12.9167 33.5881 14.2472 33.9574 15.7812 33.9574C17.1733 33.9574 18.3617 33.7112 19.3466 33.2188C20.3409 32.7169 21.0985 32.0114 21.6193 31.1023C22.1496 30.1932 22.4148 29.1184 22.4148 27.8778L23.6648 28.0625H16.1648V23.4318H28.3381V27.0966C28.3381 29.6534 27.7983 31.8504 26.7188 33.6875C25.6392 35.5152 24.1525 36.9261 22.2585 37.9205C20.3646 38.9053 18.196 39.3977 15.7528 39.3977C13.0256 39.3977 10.6297 38.7964 8.56534 37.5938C6.50095 36.3816 4.8911 34.6629 3.7358 32.4375C2.58996 30.2027 2.01705 27.5511 2.01705 24.483C2.01705 22.125 2.35795 20.0227 3.03977 18.1761C3.73106 16.3201 4.69697 14.7481 5.9375 13.4602C7.17803 12.1723 8.62216 11.1922 10.2699 10.5199C11.9176 9.84754 13.7027 9.51136 15.625 9.51136C17.2727 9.51136 18.8068 9.75284 20.2273 10.2358C21.6477 10.7093 22.9072 11.3816 24.0057 12.2528C25.1136 13.1241 26.018 14.161 26.7188 15.3636C27.4195 16.5568 27.8693 17.8731 28.0682 19.3125H21.8182ZM60.6179 39V17.1818H66.3849V21.0312H66.6406C67.0952 19.7528 67.8527 18.7443 68.9134 18.0057C69.974 17.267 71.2429 16.8977 72.7202 16.8977C74.2164 16.8977 75.4901 17.2718 76.5412 18.0199C77.5923 18.7585 78.2931 19.7623 78.6435 21.0312H78.8707C79.3158 19.7812 80.1207 18.7822 81.2855 18.0341C82.4598 17.2765 83.8471 16.8977 85.4474 16.8977C87.4834 16.8977 89.1359 17.5464 90.4048 18.8438C91.6832 20.1316 92.3224 21.9593 92.3224 24.3267V39H86.2855V25.5199C86.2855 24.3078 85.9635 23.3987 85.3196 22.7926C84.6757 22.1866 83.8707 21.8835 82.9048 21.8835C81.8063 21.8835 80.9493 22.2339 80.3338 22.9347C79.7183 23.6259 79.4105 24.5398 79.4105 25.6761V39H73.544V25.392C73.544 24.322 73.2363 23.4697 72.6207 22.8352C72.0147 22.2008 71.2145 21.8835 70.2202 21.8835C69.5478 21.8835 68.9418 22.054 68.402 22.3949C67.8717 22.7263 67.4503 23.1951 67.1378 23.8011C66.8253 24.3977 66.669 25.0985 66.669 25.9034V39H60.6179ZM107.045 39.4261C104.801 39.4261 102.869 38.9716 101.25 38.0625C99.6402 37.1439 98.3996 35.8466 97.5284 34.1705C96.6572 32.4848 96.2216 30.4915 96.2216 28.1903C96.2216 25.946 96.6572 23.9763 97.5284 22.2812C98.3996 20.5862 99.6259 19.2652 101.207 18.3182C102.798 17.3712 104.664 16.8977 106.804 16.8977C108.243 16.8977 109.583 17.1297 110.824 17.5938C112.074 18.0483 113.163 18.7348 114.091 19.6534C115.028 20.572 115.758 21.7273 116.278 23.1193C116.799 24.5019 117.06 26.1212 117.06 27.9773V29.6392H98.6364V25.8892H111.364C111.364 25.018 111.174 24.2462 110.795 23.5739C110.417 22.9015 109.891 22.3759 109.219 21.9972C108.556 21.6089 107.784 21.4148 106.903 21.4148C105.985 21.4148 105.17 21.6278 104.46 22.054C103.759 22.4706 103.21 23.0341 102.812 23.7443C102.415 24.4451 102.211 25.2263 102.202 26.0881V29.6534C102.202 30.733 102.401 31.6657 102.798 32.4517C103.205 33.2377 103.778 33.8438 104.517 34.2699C105.256 34.696 106.132 34.9091 107.145 34.9091C107.817 34.9091 108.433 34.8144 108.991 34.625C109.55 34.4356 110.028 34.1515 110.426 33.7727C110.824 33.3939 111.127 32.9299 111.335 32.3807L116.932 32.75C116.648 34.0947 116.065 35.2689 115.185 36.2727C114.313 37.267 113.187 38.0436 111.804 38.6023C110.431 39.1515 108.845 39.4261 107.045 39.4261Z" fill="#4041D5"/>
<path d="M122.116 39V9.90909H125.639V22.8636H141.151V9.90909H144.673V39H141.151V25.9886H125.639V39H122.116ZM170.817 9.90909H174.339V29.1705C174.339 31.1591 173.871 32.9347 172.933 34.4972C172.005 36.0502 170.694 37.2765 168.999 38.1761C167.304 39.0663 165.315 39.5114 163.033 39.5114C160.75 39.5114 158.762 39.0663 157.067 38.1761C155.372 37.2765 154.055 36.0502 153.118 34.4972C152.19 32.9347 151.726 31.1591 151.726 29.1705V9.90909H155.249V28.8864C155.249 30.3068 155.561 31.571 156.186 32.679C156.811 33.7775 157.701 34.6439 158.857 35.2784C160.021 35.9034 161.413 36.2159 163.033 36.2159C164.652 36.2159 166.044 35.9034 167.209 35.2784C168.374 34.6439 169.264 33.7775 169.879 32.679C170.504 31.571 170.817 30.3068 170.817 28.8864V9.90909ZM181.374 39V9.90909H191.545C193.571 9.90909 195.243 10.2595 196.559 10.9602C197.875 11.6515 198.855 12.5843 199.499 13.7585C200.143 14.9233 200.465 16.2159 200.465 17.6364C200.465 18.8864 200.243 19.9186 199.798 20.733C199.362 21.5473 198.784 22.1913 198.065 22.6648C197.354 23.1383 196.583 23.4886 195.749 23.7159V24C196.639 24.0568 197.534 24.3693 198.434 24.9375C199.334 25.5057 200.086 26.3201 200.692 27.3807C201.299 28.4413 201.602 29.7386 201.602 31.2727C201.602 32.7311 201.27 34.0426 200.607 35.2074C199.944 36.3722 198.898 37.2955 197.468 37.9773C196.038 38.6591 194.177 39 191.886 39H181.374ZM184.897 35.875H191.886C194.187 35.875 195.82 35.4299 196.786 34.5398C197.762 33.6402 198.249 32.5511 198.249 31.2727C198.249 30.2879 197.998 29.3788 197.496 28.5455C196.995 27.7027 196.28 27.0303 195.352 26.5284C194.424 26.017 193.325 25.7614 192.056 25.7614H184.897V35.875ZM184.897 22.6932H191.431C192.492 22.6932 193.448 22.4848 194.3 22.0682C195.162 21.6515 195.844 21.0644 196.346 20.3068C196.857 19.5492 197.113 18.6591 197.113 17.6364C197.113 16.358 196.668 15.2737 195.778 14.3835C194.888 13.4839 193.477 13.0341 191.545 13.0341H184.897V22.6932Z" fill="black"/>
</svg>
